<svg xml:space="preserve" xmlns="http://www.w3.org/2000/svg" viewBox="0 0 131.4 122.2">
	<!--path fill="#fff" d="M0 0h131.4v122.2H0z"/-->
	<path fill="#c7e20b" d="m52.7 0-7.1 12.1-12.7-7.3v14.7H18.7l-13 22.2 7.1 12.1L0 61.1l12.8 7.4-7 12.1 12.9 22.2h14.2v14.7l12.7-7.4 7.1 12.1h26l7-12.1 12.8 7.4v-14.7h14.2l12.9-22.3-7-12 12.8-7.4-12.8-7.3 7-12.1-13-22.3-14.1.1V4.8l-12.8 7.3-7-12.1Z"/>
	<path fill="#040000" d="M112.8 61.1a46.9 46.9 0 0 1-47.1 46.6c-26 0-47.1-20.9-47.1-46.6a46.9 46.9 0 0 1 47.1-46.6 47 47 0 0 1 47.1 46.6"/>
	<path fill="#0fb5ce" d="m109.9 51.9-8.7-5 5.2-9H95.9V27.8l-16.2-9.2-8.7 5-5.3-9-5.3 9-8.7-5-16.2 9.2v10.1H25l5.2 9-8.7 5v18.5l8.7 5-5.2 9h10.5v10l16.2 9.3 8.7-5 5.3 9 5.3-9 8.7 5 16.2-9.3v-10h10.5l-5.2-9 8.7-5z"/>
	<path fill="#ffffff" d="M82.5 90a34 34 0 0 1-46-12.2 33.2 33.2 0 0 1 12.3-45.6 34 34 0 0 1 46 12.2A33 33 0 0 1 82.5 90"/>
	<path fill="#c60076" d="M89.8 61.1A24 24 0 0 1 65.7 85a24 24 0 0 1-24.1-23.9 24 24 0 0 1 24.1-23.9 24 24 0 0 1 24.1 23.9m3-3.7 3.6-6.2-6.6-11.5h-7.2v-7.5L76 36l-3.6-6.2H59L55.4 36l-6.6-3.8v7.5h-7.2l-6.7 11.4 3.6 6.2-6.6 3.8 6.6 3.8-3.6 6.2 6.7 11.4h7.2V90l6.6-3.8 3.6 6.2h13.3l3.6-6.2 6.6 3.8v-7.5h7.2l6.7-11.4-3.6-6.2 6.6-3.8z"/>
	<path fill="#f7bc07" d="M74.3 76a17.4 17.4 0 0 1-23.6-6.3A17 17 0 0 1 57 46.3a17.4 17.4 0 0 1 23.6 6.3A17 17 0 0 1 74.3 76m14.1-19.6-4.5-2.6 2.7-4.7h-5.4V44l-8.3-4.7-4.5 2.6-2.7-4.7-2.7 4.7-4.5-2.6-8.3 4.7v5.1h-5.4l2.7 4.7-4.5 2.6v9.5l4.5 2.6-2.7 4.7h5.4v5.1l8.3 4.7 4.5-2.6 2.7 4.7 2.7-4.7 4.5 2.6 8.3-4.7v-5.1h5.4l-2.7-4.7 4.5-2.6z"/>
</svg>